<?xml version="1.0" encoding="UTF-8"?>
<svg id="uuid-decd1646-9157-4b5f-8d87-aeca9751e253" width="36" height="36" data-name="Layer 1" xmlns="http://www.w3.org/2000/svg" xmlns:xlink="http://www.w3.org/1999/xlink" viewBox="0 250 3500 3250">
  <defs>
    <style>
      .uuid-9b46575c-a0f8-4d6d-b535-bcb85655b21e {
        fill: url(#uuid-5d4ac9bd-4d08-4f19-8201-21b11be449fc);
      }

      .uuid-9b46575c-a0f8-4d6d-b535-bcb85655b21e, .uuid-db4fc6f1-b43e-4c44-92b6-db5ae2f9088f {
        stroke-width: 0px;
      }

      .uuid-db4fc6f1-b43e-4c44-92b6-db5ae2f9088f {
        fill: #fff;
      }
    </style>
    <linearGradient id="uuid-5d4ac9bd-4d08-4f19-8201-21b11be449fc" x1="2000.28" y1="592.47" x2="2000.28" y2="3266.42" gradientUnits="userSpaceOnUse">
      <stop offset="0" stop-color="#6a2e9d"/>
      <stop offset="1" stop-color="#ffffff"/>
    </linearGradient>
  </defs>
  <path class="uuid-9b46575c-a0f8-4d6d-b535-bcb85655b21e" d="m1899.4,1360.02c249.32-25.57,885.98-85.97,859.31,391.43,211.08,171.91-105.51,543.59-49.86,754.99,26.67,116.14,160.05,139.36,260.94,125.45,149.59-22.08,307.31-88.27,437.21,186.97-189.04-343.77-432.57-76.66-622.75-181.18-314.29-171.91,165.84-657.42-30.17-846.75-23.19,127.77-103.18,232.32-189.03,305.49-51.01,42.97-153.08,98.74-243.54,85.94-76.5-10.42-131.04-83.63-117.08-166.08,11.57-62.73,55.65-137.07,143.76-206.75,84.67-66.2,230.81-151,353.73-91.76-15.1-427.44-608.84-341.48-833.82-313.61l-98.58,13.95c-5.79-11.61-11.59-23.23-19.73-36.01,49.89-8.13,99.75-15.1,149.62-22.06h0Zm-829.19,375.16c-199.46,257.87,57.99,530.81,394.3,371.71,221.49-104.56,393.13-305.5,552.01-533.15h106.71c-88.16,128.92-178.61,252.04-278.34,356.58,55.65-48.78,109-103.38,160.01-160.28,74.25,174.21,87.01,367.05,46.42,526.16,9.28-19.74,18.55-42.97,26.64-67.38,12.77-38.29,19.74-78.96,24.38-101.04,3.49-23.23,1.15-38.33,2.3-38.33,141.51,259.03,46.42,360.07-12.73,439.07-10.46,12.76-8.12,15.1,11.57,16.25,13.92,1.15,35.95,2.34,53.36,4.63-8.13,2.34-17.4,4.64-24.34,6.98-18.59,6.97-32.5,10.46-31.31,15.1,0,2.34,6.94,5.82,17.36,8.12-2.3,1.15-4.63,1.15-6.93,2.34-18.55,5.79-32.46,9.28-31.32,13.91,0,4.68,13.92,10.46,31.32,9.32,15.06,0,32.46-3.49,40.59-5.83-10.43,10.46-24.38,25.57-38.29,42.97-9.28,10.46-19.7,23.22-30.13,37.17-18.55,25.57-35.95,58.07-49.87,80.15-12.76-68.54-27.86-139.37-46.4-209.05-48.71-191.69-114.81-378.66-205.26-557.55-5.81,5.79-12.76,11.61-18.55,17.44,27.82,59.22,54.5,121.92,78.84,186.97,51.03,135.92,71.9,182.37,111.34,326.41h1.15v2.3c13.91,51.13,29,102.22,41.73,167.27l1.19,3.49h0c31.31,161.45,30.13,263.67,8.08,426.27-9.28-6.98-45.2,9.28-42.89-6.98,11.59-76.66,54.5-410.01-19.72-455.32-25.51-15.1-32.46-10.42-62.61-16.25-29.02-5.83-53.35-8.13-78.88-10.47,16.25-2.3,31.31-3.48,40.59-4.63,20.88-2.3,16.25-1.15,4.63,0-10.43,0-27.83,0-42.89-1.15-15.08-1.15-29.02-2.34-49.89-9.31-2.32-1.15-4.64-1.15-6.96-2.3,4.64-1.19,10.45-1.19,17.4-1.19,29-3.45,76.54-9.28,98.58-10.42,20.87-2.34,16.24-1.15,4.64,0-10.45,0-27.83,0-42.91-1.15-15.08-1.19-29-3.49-49.88-9.32-19.7-6.97-47.53-18.59-77.7-34.84-18.55-9.28-37.1-20.93-56.82-31.35h2.32c40.59,10.42,91.61,15.1,133.36,17.4,41.76,2.34,42.91,3.48,67.27,1.19,88.14-9.32-226.13-88.32-419.8-336.84-336.31,83.63-593.75-248.57-394.3-512.24,13.91,12.77,27.82,25.55,40.59,37.16h0Zm1628.2,18.59c-91.6-49.94-194.82,2.32-264.42,45.31-97.39,58.07-183.21,148.66-197.13,233.45-9.27,55.77,20.85,101.08,75.36,109.2,172.82,27.86,363-234.64,386.19-387.96h0Zm-999.65,132.42c-141.49-248.57-329.37-455.33-584.48-667.86-38.29-32.54-69.61-59.26-84.67-69.7-13.91-11.61-9.28-8.12,6.95,2.32,16.24,10.46,45.23,26.72,85.82,58.07,259.76,192.82,451.12,416.99,592.6,659.75,74.23-74.34,141.47-159.13,206.44-250.89-40.59-56.92-88.15-109.18-144.98-155.64,33.64,82.47,41.76,193.97,37.12,234.62-13.91-168.42-139.17-370.51-270.21-499.45-39.44-38.33-62.63-59.22-69.58-65.05-6.96-4.64,1.17,5.83,12.74,26.71,52.2,126.61,51.04,148.69,52.2,272.97-35.95-406.53-583.33-543.59-945.17-555.21,353.73,304.32,255.15,791,880.22,1094.15-122.94-25.55-262.09-109.17-329.36-169.58,46.4,76.66,141.49,182.36,221.5,262.53-96.26,39.48-185.54,35.99-253.98,3.45,81.18,53.43,202.95,63.89,338.63-2.3,90.47-43,172.8-105.71,248.19-178.88h0Z"/>
</svg>